PathFileType	4	(X/Y/Z)	C:/Users/beibeiliu/ov580/test_trc/capture2\sequence.13_training_dense_right.trc
DataRate	CameraRate	NumFrames	NumMarkers	Units	OrigDataRate	OrigDataStartFrame	OrigNumFrames
120	120	20	19	mm	120	139	369
Frame#	Time	ThumbCMC			ThumbMCP			ThumbIP			ThumbTip			IndexMCP			IndexPIP			IndexTip			MiddleMCP			MiddlePIP			MiddleTip			RingMCP			RingPIP			RingTip			PinkyMCP			PinkyPIP			PinkyTip			BackHand1			BackHand2			BackHand3	
		X0	Y0	Z0	X1	Y1	Z1	X2	Y2	Z2	X3	Y3	Z3	X4	Y4	Z4	X5	Y5	Z5	X6	Y6	Z6	X7	Y7	Z7	X8	Y8	Z8	X9	Y9	Z9	X10	Y10	Z10	X11	Y11	Z11	X12	Y12	Z12	X13	Y13	Z13	X14	Y14	Z14	X15	Y15	Z15	X16	Y16	Z16	X17	Y17	Z17	X18	Y18	Z18	
138	1.15	155.43	108.3	-66.4611	134.1	121.061	-89.2734	119.137	122.543	-114.883	103.553	115.091	-133.511	141.239	73.9188	-132.914	120.409	87.2792	-152.058	95.8341	102.649	-147.027	130.256	55.3332	-132.582	106.626	67.1648	-152.747	82.5557	83.6198	-152.111	118.569	43.8448	-119.33	94.9528	50.0159	-142.307	77.9981	74.7105	-149.936	107.184	36.4649	-105.682	89.8075	39.6711	-125.315	69.1176	55.3734	-140.47	143.105	42.9989	-73.8583	149.146	46.9152	-44.1839	165.253	68.7291	-66.7025	
139	1.15833	154.643	104.621	-64.5575	134.102	116.354	-89.312	120.516	122.329	-114.114	106.233	112.913	-129.569	145.501	76.6402	-133.99	122.344	88.8874	-151.958	100.012	103.933	-148.383	132.288	55.654	-131.921	107.476	66.5485	-152.576	83.1835	85.5474	-151.887	120.368	45.6867	-120.174	98.6692	49.3735	-140.888	76.8919	75.084	-149.278	105.082	35.3273	-104.514	91.4705	38.7233	-123.81	71.1448	55.8842	-141.053	142.55	44.0163	-73.228	150.03	46.9754	-42.9245	165.369	66.2617	-66.6369	
140	1.16667	155.884	103.309	-66.274	136.393	121.065	-88.4202	122.629	122.788	-110.047	108.239	113.262	-130.634	146.959	75.6046	-130.141	120.928	85.9693	-149.936	100.188	106.378	-148.274	134.05	55.9001	-128.643	110.275	66.6239	-152.701	83.4067	85.7377	-152.38	117.771	41.6126	-120.039	100.357	51.0663	-142.351	76.2394	74.2889	-149.106	107.255	37.1346	-100.449	92.4579	38.6502	-122.683	72.6488	58.4364	-142.382	138.97	42.2372	-67.8835	148.033	47.6022	-43.7074	167.813	67.9821	-67.1268	
141	1.175	158.59	106.653	-62.5289	135.978	117.439	-88.3619	124.337	122.989	-113.196	109.27	113.499	-128.471	146.743	76.1052	-133.023	123.146	83.6827	-148.541	99.8332	103.208	-145.193	131.605	54.173	-126.821	112.54	66.3628	-151.401	86.5163	86.3949	-153.109	120.314	45.4824	-122.106	97.8126	51.8847	-141.36	81.686	72.7463	-149.747	105.502	35.4722	-99.0943	89.1081	40.8996	-124.139	71.4624	56.1873	-137.548	142.981	43.5777	-71.4166	148.488	44.8662	-39.7602	165.087	63.819	-65.2736	
142	1.18333	159.022	104.572	-65.7593	139.44	120.735	-86.1268	125.757	122.785	-111.577	111.312	116.022	-126.381	145.489	73.5543	-129.395	125.878	85.9077	-147.651	102.096	105.264	-145.864	131.499	54.2637	-128.289	110.699	63.0312	-147.525	84.7068	90.9189	-150.212	117.702	43.7197	-121.193	102.088	51.5281	-139.064	78.5062	77.3866	-148.143	105.61	36.3822	-100.161	91.5381	40.476	-121.575	69.3282	56.9667	-137.657	142.189	44.1855	-66.16	147.165	42.4357	-42.0288	168.984	64.2051	-65.7572	
143	1.19167	159.389	101.068	-63.1246	141.535	119.423	-82.1974	127.475	123.995	-109.618	112.83	116.128	-128.73	147.822	74.7148	-125.616	124.869	89.0283	-146.631	100.727	105.883	-141.545	132.402	54.5851	-124.265	110.553	64.1334	-146.119	87.1221	92.5674	-149.519	119.647	44.8708	-114.113	95.4064	54.0566	-138.499	80.3709	76.5905	-146.146	105.677	37.45	-95.4935	89.0431	41.0953	-117.902	75.2595	60.114	-137.799	143.048	41.8068	-69.5396	149.308	46.7628	-35.7292	166.024	64.2051	-63.4396	
144	1.2	162.071	101.437	-54.9005	143.69	120.083	-80.018	130.916	122.397	-104.305	117.096	120.07	-124.017	146.965	75.0814	-126.277	123.522	88.0108	-143.13	105.921	109.34	-141.771	134.596	57.8236	-121.803	110.876	68.2625	-144.465	89.8818	92.5478	-148.374	118.119	45.2344	-114.984	99.087	52.6295	-133.396	79.1866	79.3961	-143.827	103.976	37.1129	-94.8119	88.7525	44.5426	-120.413	76.4175	59.8182	-133.787	139.618	43.0076	-66.8588	149.739	45.6505	-33.2514	167.817	60.8251	-61.8643	
145	1.20833	162.653	100.205	-53.1895	145.088	117.041	-78.3431	133.981	124.928	-101.352	120.16	120.537	-121.682	145.249	74.7243	-122.343	128.023	88.7799	-140.321	107.047	112.499	-137.808	133.581	56.691	-118.92	113.051	68.7855	-142.381	90.0323	94.0283	-145.369	118.855	46.5367	-111.923	98.9379	56.6952	-134.113	80.3327	81.5563	-140.361	105.451	40.4028	-92.5116	90.0658	44.8162	-115.468	71.6012	62.7658	-131.143	137.123	40.8406	-59.6231	146.999	44.3787	-32.1806	165.543	58.7289	-56.7999	
146	1.21667	163.703	98.5502	-53.047	147.953	115.97	-71.6461	136.478	122.639	-99.1039	122.745	121.298	-115.555	148.448	76.8154	-121.542	132.247	90.7049	-136.907	105.848	113.803	-131.514	132.312	58.1756	-116.103	111.555	71.0163	-139.08	89.4029	99.7432	-141.523	116.71	47.8528	-106.417	97.8981	59.31	-130.115	82.3291	83.3343	-137.653	102.26	40.1747	-92.5742	88.1955	48.299	-114.762	76.2265	69.0047	-130.13	139.624	41.2505	-60.9937	143.767	44.177	-30.4391	165.272	60.1529	-51.8607	
147	1.225	165.367	98.6924	-47.8581	149.33	116.398	-67.2621	138.66	122.651	-92.3234	124.403	120.266	-111.515	146.807	74.497	-113.458	129.267	90.704	-132.875	107.94	115.312	-127.757	128.947	56.8352	-114.179	111.399	74.3194	-137.249	93.7066	103.226	-139.112	117.101	49.5938	-104.484	98.7369	59.3184	-125.97	83.1939	85.804	-134.55	104.43	44.0395	-86.4274	87.093	48.9594	-108.459	72.5155	67.3281	-125.552	138.022	41.3406	-54.551	143.974	43.9934	-28.8598	163.57	58.1715	-47.3088	
148	1.23333	164.615	95.7882	-41.9208	150.866	117.025	-64.8185	140.554	124.03	-91.0126	126.587	123.478	-108.126	148.386	75.6962	-112.147	128.257	93.7736	-128.841	110.827	118.672	-124.205	130.354	58.9029	-110.865	112.443	71.2651	-130.936	92.0536	102.547	-133.332	116.451	50.2991	-102.892	97.5336	59.9213	-122.381	85.6701	88.4195	-130.081	100.612	42.7664	-85.9149	82.4481	51.7952	-106.351	72.7924	75.3189	-121.14	133.723	41.0199	-52.3348	143.194	42.2375	-22.8588	163.195	54.8284	-43.7057	
149	1.24167	166.746	96.2273	-36.8554	153.041	114.61	-55.9526	143.231	125.707	-85.3439	125.871	121.259	-102.24	146.57	73.2887	-105.645	130.74	90.4342	-123.433	111.038	113.882	-119.651	131.26	58.5288	-104.868	113.627	73.5237	-127.489	92.8483	103.2	-129.784	115.88	51.2041	-98.0645	98.7513	61.7312	-117.787	83.198	92.7757	-126.172	98.9442	44.8571	-82.9863	83.0289	53.697	-103.25	72.6349	77.9122	-116.993	134.33	40.0283	-47.6609	139.803	39.1622	-19.0698	164.399	56.1128	-42.6188	
150	1.25	166.936	91.7957	-32.2725	153.941	112.32	-55.9181	144.882	121.987	-78.5497	129.523	122.206	-100.624	149.339	73.6868	-102.242	134.724	91.817	-121.826	114.163	120.166	-112.781	127.852	56.903	-103.217	109.963	74.1849	-124.584	92.8904	104.256	-125.132	113.47	49.295	-92.7735	96.1134	64.0799	-117.434	86.2736	89.737	-122.747	99.5126	45.4449	-77.3702	83.2021	51.8945	-97.2712	70.5927	77.6057	-112.312	133.229	38.0048	-46.8989	139.806	37.9366	-18.2788	161.727	52.5405	-39.7608	
151	1.25833	167.995	88.4304	-31.3066	156.956	111.314	-50.6302	145.41	116.599	-76.6454	130.435	118.749	-95.0057	150.664	72.0087	-98.1124	132.809	88.4399	-116.319	113.704	117.264	-107.621	128.063	54.7467	-97.0533	112.631	71.7451	-120.718	98.5746	102.14	-123.432	109.173	46.1519	-93.1301	94.6679	62.4481	-113.759	85.1056	88.2876	-117.324	94.7023	41.6099	-72.5261	81.4296	53.6049	-95.963	71.4835	80.3132	-107.145	132.147	36.5653	-42.3193	135.775	33.7764	-9.92661	161.146	49.852	-35.3437	
152	1.26667	165.738	82.6814	-25.0191	158.641	106.702	-44.952	150.389	118.455	-74.923	136.733	118.592	-92.813	148.486	67.5773	-93.6812	135.471	88.4118	-113.302	118.315	114.246	-105.188	126.986	53.2324	-98.439	115.483	72.9505	-117.961	97.6227	101.972	-117.955	111.193	45.847	-85.9798	100.285	59.9686	-108.188	90.3588	89.1933	-114.646	96.791	43.9104	-69.9058	79.353	56.6316	-92.9588	74.5327	79.1943	-103.486	126.846	31.3091	-36.9289	137.595	35.0269	-6.80014	161.484	47.2042	-29.273	
153	1.275	169.132	78.8363	-18.7545	161.896	102.78	-42.026	155.172	114.406	-70.4011	141.937	119.086	-88.3899	153.277	67.0793	-92.6825	138.952	86.9855	-110.374	122.213	112.443	-103.325	132.198	51.4031	-90.5325	115.093	72.7115	-114.775	105.608	105.501	-115.126	112.743	45.6338	-86.4401	99.2444	63.0432	-105.945	90.477	92.0488	-110.39	96.1383	43.4179	-67.9645	82.731	58.1465	-89.7433	81.2059	84.7617	-101.071	126.214	30.9913	-35.2283	133.818	28.9835	-7.73311	159.094	42.1548	-25.0734	
154	1.28333	168.451	73.9013	-15.7677	163.973	98.1778	-38.685	157.862	110.634	-63.5033	145.271	115.561	-85.1256	150.543	64.0967	-90.5478	141.438	87.0937	-107.479	125.737	112.325	-99.1937	129.754	49.5092	-89.2832	117.709	68.5336	-110.59	108.793	104.695	-111.01	111.489	44.2028	-79.7182	97.2786	60.9305	-101.164	95.8728	92.2994	-107.573	94.24	43.9862	-63.441	83.4389	57.3245	-84.8939	79.5753	84.0652	-97.1644	126.763	31.7679	-30.4051	129.663	27.2994	-1.94199	160.263	37.5761	-24.1787	
155	1.29167	168.418	69.3211	-11.3918	166.619	94.7733	-34.7125	161.831	108.147	-60.8009	146.848	110.973	-79.0665	150.631	60.3907	-86.0571	140.1	84.9484	-102.275	131.173	109.363	-98.1464	131.48	48.8439	-88.6527	116.047	70.4775	-108.754	110.406	105.009	-106.852	108.694	43.8538	-75.4862	98.1234	62.798	-100.103	97.3082	95.6351	-102.713	94.1742	43.6912	-59.9795	83.2983	61.323	-83.816	84.2932	89.0531	-94.0048	121.446	27.741	-30.875	127.369	26.1349	0.494726	156.098	35.0297	-19.4627	
156	1.3	170.226	66.6954	-10.2255	166.303	90.9401	-27.8909	162.385	104.374	-53.1652	152.513	110.726	-74.0562	153.2	59.1147	-82.645	143.096	84.5163	-99.8627	133.152	109.029	-92.6643	128.095	47.3643	-84.245	122.127	66.8835	-104.799	110.083	104.28	-101.839	111.705	43.5793	-78.4271	102.272	65.4523	-98.4747	100.99	95.9385	-99.1722	92.87	44.0466	-58.5076	87.0449	59.8583	-80.7412	85.7718	91.3653	-90.1911	121.432	27.2904	-28.877	128.052	24.4702	2.78117	154.512	29.3795	-18.3067	
157	1.30833	170.73	64.4589	-5.21465	166.864	88.5209	-30.6953	164.251	102.354	-54.41	151.178	107.664	-73.6261	151.792	55.7303	-76.8861	147.341	81.7369	-96.6071	135.305	110.906	-87.492	129.72	46.9482	-84.3404	118.367	70.363	-102.369	111.462	104.036	-98.6662	106.981	42.891	-72.8426	101.457	61.9084	-94.9007	97.6935	94.7414	-96.5254	91.3281	43.049	-56.8875	85.9854	59.8353	-78.5088	85.3282	88.4553	-85.7188	120.747	23.9965	-21.6752	127.647	19.685	5.41375	155.87	29.0532	-16.1223	
